<?xml version="1.0" encoding="UTF-8" standalone="no"?>
<svg width="90px" height="99px" viewBox="0 0 90 99" version="1.1" xmlns="http://www.w3.org/2000/svg" xmlns:xlink="http://www.w3.org/1999/xlink" xmlns:sketch="http://www.bohemiancoding.com/sketch/ns">
    <!-- Generator: Sketch 3.3.3 (12072) - http://www.bohemiancoding.com/sketch -->
    <title>microscope</title>
    <desc>Created with Sketch.</desc>
    <defs></defs>
    <g id="Page-1" stroke="none" stroke-width="1" fill="none" fill-rule="evenodd" sketch:type="MSPage">
        <g id="microscope" sketch:type="MSArtboardGroup" stroke="#424E51" stroke-linejoin="round">
            <path d="M16.5,81 L70.334,81 L70.334,90 L16.5,90 L16.5,81 Z" id="Path" stroke-width="2.5" stroke-linecap="round" sketch:type="MSShapeGroup"></path>
            <path d="M60.75,18 L34,18 L34,28.598 L60.75,28.598 L60.75,59.215 L42.25,59.215 L42.25,81 L60.75,81 L70.334,69.814 L70.334,18 L60.75,18 L60.75,18 Z" id="Path" stroke-width="2.5" stroke-linecap="round" sketch:type="MSShapeGroup"></path>
            <path d="M24.334,36.834 L32,36.834 L32,42.001 L24.334,42.001 L24.334,36.834 Z" id="Path" stroke-width="2.5" stroke-linecap="round" sketch:type="MSShapeGroup"></path>
            <path d="M34,14.834 C34,13.729 33.104,12.834 32,12.834 L24.334,12.834 C23.229,12.834 22.333,13.729 22.333,14.834 L22.333,20.667 L34,20.667 L34,14.834 L34,14.834 Z" id="Path" stroke-width="2.5" stroke-linecap="round" sketch:type="MSShapeGroup"></path>
            <path d="M22.333,25.667 L22.333,34.834 C22.333,35.938 23.229,36.834 24.334,36.834 L32,36.834 C33.104,36.834 34,35.938 34,34.834 L34,25.667 L22.333,25.667 L22.333,25.667 Z" id="Path" stroke-width="2.5" stroke-linecap="round" sketch:type="MSShapeGroup"></path>
            <path d="M22.333,25.667 L34,25.667 L34,20.667 L22.333,20.667 L22.333,25.667 Z" id="Path" stroke-width="2.5" stroke-linecap="round" sketch:type="MSShapeGroup"></path>
            <path d="M58.548,69.77 C58.548,72.44 56.384,74.604 53.715,74.604 C51.045,74.604 48.881,72.44 48.881,69.77 C48.881,67.102 51.045,64.937 53.715,64.937 C56.384,64.937 58.548,67.102 58.548,69.77 L58.548,69.77 Z" id="Path" stroke-width="2.5" stroke-linecap="round" sketch:type="MSShapeGroup"></path>
            <path d="M18.343,54 C16.727,54 15.417,55.167 15.417,56.607 C15.417,58.048 16.727,59.215 18.343,59.215 L60.75,59.215 L60.75,54 L18.343,54 L18.343,54 Z" id="Path" stroke-width="2.5" stroke-linecap="round" sketch:type="MSShapeGroup"></path>
            <path d="M38.083,22.375 L47.973,22.375" id="Path" stroke-width="2" sketch:type="MSShapeGroup"></path>
            <path d="M49.805,22.375 L52.75,22.375" id="Path" stroke-width="2" sketch:type="MSShapeGroup"></path>
        </g>
    </g>
</svg>
